<svg id="line" xmlns="http://www.w3.org/2000/svg" width="64" height="64" viewBox="0 0 64 64"><title>hotel</title><path d="M18.162,27.059h-.106a1,1,0,0,0-1,1A34.8,34.8,0,0,0,51.9,63,1.008,1.008,0,0,0,53,62,34.781,34.781,0,0,0,18.162,27.059ZM48.707,58.707a1,1,0,0,1-1.414,0l-20-20a1,1,0,0,1,1.414-1.414l20,20A1,1,0,0,1,48.707,58.707Z" style="fill:#c4a2fc"/><path d="M52.705,13.291a1,1,0,0,0-1.41,0A34.609,34.609,0,0,0,41.333,33.24,36.86,36.86,0,0,1,51,45.154v-17.1a1,1,0,1,1,2,0V49.867A36.851,36.851,0,0,1,54.962,60.24a34.793,34.793,0,0,0-2.257-46.949Z" style="fill:#c4a2fc"/><path d="M48,17H27V2a1,1,0,0,0-1.316-.949l-24,8A1,1,0,0,0,1,10V49a1,1,0,0,0,1,1H48a1,1,0,0,0,1-1V18A1,1,0,0,0,48,17ZM16,48H12V42h4Zm9,0H18V41a1,1,0,0,0-1-1H11a1,1,0,0,0-1,1v7H3V10.722L25,3.389Zm22,0H27V19H47Z" style="fill:#151a6a"/><path d="M31,14h8A12.013,12.013,0,0,0,51,2a1,1,0,0,0-1-1H42A12.013,12.013,0,0,0,30,13,1.044,1.044,0,0,0,31,14ZM42,3h6.95A10.013,10.013,0,0,1,39,12H33.082a12.429,12.429,0,0,1,9.129-4H43a1,1,0,0,0,0-2h-.789A14.44,14.44,0,0,0,32.58,9.675,10.009,10.009,0,0,1,42,3Z" style="fill:#151a6a"/><path d="M31,45H43a1,1,0,0,0,1-1V36a1,1,0,0,0-1-1H31a1,1,0,0,0-1,1v8A1,1,0,0,0,31,45Zm1-8H42v6H32Z" style="fill:#151a6a"/><path d="M8,37H20a1,1,0,0,0,1-1V28a1,1,0,0,0-1-1H8a1,1,0,0,0-1,1v8A1,1,0,0,0,8,37Zm1-8H19v6H9Z" style="fill:#151a6a"/><path d="M8,24H20a1,1,0,0,0,1-1V15a1,1,0,0,0-1-1H8a1,1,0,0,0-1,1v8A1,1,0,0,0,8,24Zm1-8H19v6H9Z" style="fill:#151a6a"/><path d="M31,32H43a1,1,0,0,0,1-1V23a1,1,0,0,0-1-1H31a1,1,0,0,0-1,1v8A1,1,0,0,0,31,32Zm1-8H42v6H32Z" style="fill:#151a6a"/></svg>